<svg width="51" height="48" viewBox="0 0 51 48" fill="none" xmlns="http://www.w3.org/2000/svg">
<path d="M25.12 11.8927C18.005 11.9071 12.2783 17.299 12.2937 23.9693C12.309 30.6396 18.0604 36.0083 25.1754 35.9939C32.2904 35.9795 38.017 30.5877 38.0016 23.9174C37.9863 17.247 32.235 11.8783 25.12 11.8927ZM25.1657 31.778C20.5678 31.7872 16.8008 28.2813 16.7909 23.9602C16.7809 19.6392 20.5206 16.1182 25.1297 16.1089C29.7388 16.0995 33.4946 19.6054 33.5045 23.9265C33.5144 28.2475 29.7636 31.7684 25.1657 31.778ZM41.4968 11.3667C41.5003 12.9294 40.161 14.1802 38.5051 14.1835C36.8382 14.1869 35.504 12.931 35.5004 11.3788C35.4969 9.8266 36.8366 8.5653 38.4921 8.562C40.148 8.5586 41.4933 9.8145 41.4968 11.3667ZM50.0168 14.2022C49.8181 10.4374 48.893 7.1041 45.9446 4.3622C43.0072 1.62027 39.4475 0.767432 35.4308 0.586782C31.2912 0.374892 18.8847 0.399932 14.746 0.628562C10.7413 0.814962 7.1858 1.68215 4.24989 4.4359C1.31402 7.1897 0.41552 10.5267 0.22279 14.2923C-0.0032201 18.1733 0.0235303 29.8045 0.26735 33.6844C0.46622 37.4494 1.39123 40.7825 4.33977 43.5245C7.2883 46.2666 10.8366 47.1191 14.8532 47.2998C18.993 47.5118 31.3995 47.4868 35.5382 47.2581C39.5541 47.0719 43.1095 46.2046 46.0343 43.4405C48.9591 40.6866 49.8685 37.3495 50.0612 33.5838C50.2874 29.7029 50.2606 18.0823 50.0168 14.2022ZM44.7237 37.7584C43.8556 39.816 42.1702 41.4031 39.9679 42.2361C36.6706 43.4696 28.839 43.2023 25.192 43.2096C21.545 43.217 13.7034 43.5057 10.4116 42.2955C8.217 41.482 6.5241 39.9019 5.63561 37.8373C4.31959 34.7461 4.60476 27.4039 4.59689 23.9849C4.58903 20.5658 4.28128 13.2143 5.57189 10.1283C6.4398 8.0709 8.1254 6.4838 10.3274 5.6507C13.6248 4.417 21.4564 4.6844 25.1034 4.677C28.7504 4.6696 36.5919 4.3811 39.8837 5.591C42.0785 6.4047 43.7714 7.9849 44.66 10.0493C45.9757 13.1406 45.6905 20.4828 45.6984 23.9018C45.7062 27.3209 46.0252 34.6723 44.7237 37.7584Z" fill="white"/>
</svg>
