<svg width="49" height="48" viewBox="0 0 49 48" fill="none" xmlns="http://www.w3.org/2000/svg">
<path d="M41.8593 6.98411C39.6015 4.76197 36.9126 3.00004 33.9491 1.80099C30.9857 0.601948 27.8071 -0.0102316 24.5985 0.000129348C11.1543 0.000129348 0.196985 10.6801 0.196985 23.7841C0.196985 27.9841 1.32965 32.064 3.44724 35.664L0 48L12.9271 44.688C16.4975 46.584 20.5111 47.592 24.5985 47.592C38.0427 47.592 49 36.912 49 23.8081C49 17.4481 46.4638 11.4721 41.8593 6.98411ZM24.5985 43.56C20.9543 43.56 17.3839 42.6 14.2568 40.8L13.5181 40.368L5.83568 42.336L7.8794 35.04L7.38693 34.296C5.3618 31.145 4.2867 27.5023 4.28442 23.7841C4.28442 12.8881 13.395 4.00812 24.5739 4.00812C29.991 4.00812 35.0879 6.07211 38.9045 9.8161C40.7946 11.6494 42.2925 13.8302 43.3111 16.2321C44.3298 18.634 44.849 21.2091 44.8387 23.8081C44.8879 34.704 35.7774 43.56 24.5985 43.56ZM35.7281 28.7761C35.1126 28.4881 32.1085 27.0481 31.5668 26.8321C31.0005 26.6401 30.6065 26.5441 30.1879 27.1201C29.7693 27.7201 28.6121 29.0641 28.2673 29.4481C27.9226 29.8561 27.5533 29.9041 26.9377 29.5921C26.3221 29.3041 24.3523 28.6561 22.0377 26.6401C20.2156 25.0561 19.009 23.1121 18.6397 22.5121C18.295 21.9121 18.5904 21.6001 18.9105 21.2881C19.1814 21.0241 19.5261 20.5921 19.8216 20.2561C20.1171 19.9201 20.2402 19.6561 20.4372 19.2721C20.6342 18.8641 20.5357 18.5281 20.3879 18.2401C20.2402 17.9521 19.009 15.0241 18.5166 13.8241C18.0241 12.6721 17.507 12.8161 17.1377 12.7921H15.9558C15.5372 12.7921 14.897 12.9361 14.3307 13.5361C13.7889 14.1361 12.2131 15.5761 12.2131 18.5041C12.2131 21.4321 14.4045 24.2641 14.7 24.6481C14.9955 25.0561 19.009 31.056 25.1156 33.624C26.5683 34.248 27.701 34.608 28.5874 34.872C30.0402 35.328 31.3698 35.256 32.4286 35.112C33.6105 34.944 36.0482 33.672 36.5407 32.28C37.0578 30.888 37.0578 29.7121 36.8854 29.4481C36.7131 29.1841 36.3437 29.0641 35.7281 28.7761Z" fill="white"/>
</svg>
